<svg width="239" height="239" viewBox="0 0 239 239" fill="none" xmlns="http://www.w3.org/2000/svg">
<path fill-rule="evenodd" clip-rule="evenodd" d="M78.0128 21.34C54.9421 31.0462 36.0438 48.5933 24.6562 70.882C13.2685 93.1709 10.1241 118.767 15.7784 143.149C21.4326 167.531 35.5219 189.131 55.5573 204.132C75.5925 219.135 100.285 226.572 125.273 225.134C150.261 223.695 173.937 213.472 192.118 196.271C210.299 179.068 221.816 155.994 224.634 131.124C227.453 106.254 221.392 81.1879 207.521 60.3535C205.527 57.3573 206.339 53.3116 209.335 51.3167C212.331 49.3221 216.377 50.134 218.371 53.13C233.946 76.5231 240.752 104.667 237.586 132.592C234.421 160.516 221.49 186.424 201.077 205.737C180.662 225.052 154.079 236.532 126.022 238.146C97.9656 239.763 70.2408 231.41 47.7448 214.567C25.2489 197.723 9.42956 173.47 3.08088 146.094C-3.2678 118.717 0.262785 89.9776 13.049 64.9517C25.8353 39.9258 47.0542 20.2237 72.9583 9.3256C98.8621 -1.57255 127.784 -2.96553 154.615 5.39273C158.052 6.46322 159.97 10.1168 158.899 13.5533C157.829 16.9898 154.175 18.9078 150.739 17.8373C126.842 10.3933 101.084 11.6339 78.0128 21.34ZM195.517 30.2585C195.517 34.115 192.39 37.2412 188.534 37.2412C184.677 37.2412 181.551 34.115 181.551 30.2585C181.551 26.402 184.677 23.2758 188.534 23.2758C192.39 23.2758 195.517 26.402 195.517 30.2585ZM96.6534 97.5223C102.736 91.4397 110.11 88.3958 118.75 88.3958C127.39 88.3958 134.738 91.4397 140.821 97.5223C146.904 103.61 149.958 110.971 149.958 119.609V145.064C149.958 148.247 147.376 150.827 144.198 150.827C140.002 150.827 136.576 147.416 136.576 143.207V119.542C136.576 115.609 135.359 111.724 132.876 108.675C128.755 103.622 123.467 101.343 117.062 101.84C113.412 102.12 109.936 103.605 107.205 106.008C103.009 109.675 100.899 114.211 100.899 119.609V143.917C100.899 147.734 97.8201 150.827 93.9968 150.827C90.4216 150.827 87.517 147.93 87.517 144.354V119.609C87.517 110.971 90.5706 103.61 96.6534 97.5223Z" fill="#3FCF8D"/>
</svg>
